<?xml version="1.0" encoding="utf-8"?>
<!-- Generator: Adobe Illustrator 25.0.0, SVG Export Plug-In . SVG Version: 6.00 Build 0)  -->
<svg version="1.1" id="Layer_1" xmlns="http://www.w3.org/2000/svg" xmlns:xlink="http://www.w3.org/1999/xlink" x="0px" y="0px"
	 viewBox="0 0 292.65 69.93" style="enable-background:new 0 0 292.65 69.93;" xml:space="preserve">
<style type="text/css">
	.st0{enable-background:new    ;}
	.st1{fill:#FFFFFF;}
	.st2{fill:#BE202E;}
</style>
<g class="st0">
	<path class="st1" d="M26.85,39.89h-7.59v24.96c0,1.44-0.32,2.5-0.96,3.2s-1.47,1.04-2.48,1.04c-1.03,0-1.87-0.35-2.52-1.05
		s-0.97-1.77-0.97-3.19V39.89H4.73c-1.19,0-2.07-0.26-2.65-0.79s-0.87-1.21-0.87-2.07c0-0.89,0.3-1.59,0.9-2.11s1.47-0.77,2.61-0.77
		h22.12c1.2,0,2.1,0.27,2.68,0.8s0.88,1.23,0.88,2.09s-0.3,1.55-0.89,2.07S28.04,39.89,26.85,39.89z"/>
	<path class="st1" d="M42.22,59.86v5.34c0,1.3-0.3,2.27-0.91,2.92s-1.38,0.97-2.32,0.97c-0.92,0-1.68-0.33-2.27-0.98
		s-0.89-1.62-0.89-2.91V47.39c0-2.88,1.04-4.31,3.12-4.31c1.06,0,1.83,0.34,2.3,1.01s0.73,1.66,0.77,2.98
		c0.77-1.31,1.55-2.3,2.36-2.98s1.88-1.01,3.22-1.01s2.65,0.34,3.91,1.01s1.9,1.56,1.9,2.67c0,0.78-0.27,1.43-0.81,1.93
		s-1.12,0.76-1.75,0.76c-0.23,0-0.8-0.14-1.7-0.43s-1.69-0.43-2.38-0.43c-0.94,0-1.7,0.25-2.3,0.74s-1.05,1.22-1.38,2.19
		s-0.55,2.12-0.68,3.46S42.22,57.94,42.22,59.86z"/>
	<path class="st1" d="M63.72,40.1c-0.89,0-1.65-0.27-2.29-0.82s-0.95-1.32-0.95-2.32c0-0.91,0.32-1.65,0.97-2.24s1.4-0.88,2.26-0.88
		c0.83,0,1.56,0.27,2.2,0.8s0.96,1.3,0.96,2.32c0,0.98-0.31,1.75-0.94,2.31S64.58,40.1,63.72,40.1z M66.89,46.71V65.2
		c0,1.28-0.3,2.25-0.91,2.91s-1.38,0.98-2.32,0.98s-1.7-0.34-2.29-1.01s-0.88-1.63-0.88-2.88V46.9c0-1.27,0.29-2.22,0.88-2.86
		s1.35-0.96,2.29-0.96s1.71,0.32,2.32,0.96S66.89,45.57,66.89,46.71z"/>
	<path class="st1" d="M82.91,46.62v0.77c1.12-1.48,2.36-2.57,3.69-3.27s2.87-1.04,4.61-1.04c1.69,0,3.2,0.37,4.52,1.1
		s2.32,1.77,2.98,3.12c0.42,0.78,0.7,1.62,0.82,2.53s0.19,2.06,0.19,3.47V65.2c0,1.28-0.29,2.25-0.88,2.91s-1.35,0.98-2.29,0.98
		c-0.95,0-1.73-0.34-2.32-1.01s-0.89-1.63-0.89-2.88V54.54c0-2.11-0.29-3.72-0.88-4.84s-1.75-1.68-3.5-1.68
		c-1.14,0-2.18,0.34-3.12,1.02s-1.62,1.61-2.06,2.8c-0.31,0.95-0.47,2.73-0.47,5.34v8.02c0,1.3-0.3,2.27-0.9,2.92
		s-1.38,0.97-2.33,0.97c-0.92,0-1.68-0.34-2.27-1.01s-0.89-1.63-0.89-2.88V46.71c0-1.22,0.27-2.13,0.8-2.73s1.26-0.9,2.18-0.9
		c0.56,0,1.07,0.13,1.52,0.4s0.82,0.66,1.09,1.2S82.91,45.85,82.91,46.62z"/>
	<path class="st1" d="M115.95,37.45v9.49c0.81-0.94,1.61-1.68,2.38-2.23s1.63-0.96,2.57-1.23s1.95-0.41,3.02-0.41
		c1.62,0,3.07,0.34,4.32,1.03s2.25,1.69,2.96,3c0.45,0.77,0.76,1.62,0.91,2.57s0.23,2.04,0.23,3.27V65.2c0,1.28-0.29,2.25-0.88,2.91
		s-1.36,0.98-2.33,0.98c-2.11,0-3.16-1.3-3.16-3.89V54.4c0-2.05-0.3-3.62-0.91-4.72s-1.77-1.65-3.47-1.65
		c-1.14,0-2.17,0.32-3.08,0.97s-1.6,1.54-2.05,2.66c-0.34,0.95-0.52,2.65-0.52,5.09v8.46c0,1.27-0.29,2.23-0.86,2.89s-1.36,1-2.38,1
		c-2.11,0-3.16-1.3-3.16-3.89V37.45c0-1.3,0.28-2.27,0.83-2.92s1.33-0.97,2.33-0.97c1.02,0,1.81,0.33,2.38,0.98
		S115.95,36.17,115.95,37.45z"/>
	<path class="st1" d="M162.64,34.15h9.07c2.36,0,4.38,0.22,6.07,0.66s3.22,1.26,4.59,2.46c3.58,3.06,5.37,7.72,5.37,13.97
		c0,2.06-0.18,3.95-0.54,5.65s-0.91,3.24-1.66,4.61s-1.71,2.59-2.88,3.67c-0.92,0.83-1.93,1.49-3.02,1.99s-2.27,0.85-3.53,1.05
		s-2.68,0.3-4.25,0.3h-9.07c-1.27,0-2.22-0.19-2.86-0.57s-1.06-0.92-1.25-1.62s-0.29-1.6-0.29-2.71v-25.2c0-1.5,0.34-2.59,1.01-3.26
		S161.14,34.15,162.64,34.15z M165.33,39.65v23.32h5.27c1.16,0,2.06-0.03,2.72-0.09s1.34-0.22,2.04-0.47s1.31-0.6,1.83-1.05
		c2.33-1.97,3.49-5.36,3.49-10.17c0-3.39-0.51-5.93-1.54-7.62s-2.29-2.76-3.79-3.22s-3.31-0.69-5.44-0.69H165.33z"/>
	<path class="st1" d="M197.65,69.09c-0.97,0-1.8-0.31-2.51-0.94s-1.05-1.5-1.05-2.62c0-0.95,0.34-1.77,1.01-2.46s1.5-1.03,2.48-1.03
		s1.82,0.34,2.52,1.02s1.04,1.5,1.04,2.47c0,1.11-0.35,1.98-1.04,2.61S198.58,69.09,197.65,69.09z"/>
</g>
<g class="st0">
	<path class="st2" d="M292.01,60.71l-0.96,3.01c-7.06,3.28-12.26,4.92-15.59,4.92c-1.73,0-3.2-0.27-4.41-0.82s-2.12-1.22-2.73-2.02
		c-0.62-0.8-1.11-1.77-1.47-2.91c-0.37-1.14-0.89-3.67-1.57-7.59l-2.26-12.71c-6.75,9.48-13.05,16.21-18.9,20.2
		c-5.86,3.99-11.88,5.98-18.08,5.98c-5.56,0-9.7-1.38-12.41-4.14s-4.07-7.28-4.07-13.57c0-9.43,2.23-18.3,6.7-26.59
		c4.46-8.29,9.6-14.22,15.41-17.77s12.11-5.33,18.9-5.33c5.65,0,9.97,1.39,12.95,4.17c2.98,2.78,5.21,8.02,6.67,15.72
		c2.51-5.47,4.79-11.32,6.84-17.57l1.85-0.96l4.92,3.76l0.41,1.98c-5.06,9.16-9.14,15.88-12.24,20.17
		c0.82,5.24,1.85,10.69,3.08,16.34c1.23,5.65,2.21,9.4,2.94,11.25c0.73,1.85,1.66,3.21,2.8,4.1c1.14,0.89,2.67,1.33,4.58,1.33
		c1.64,0,3.51-0.46,5.61-1.37L292.01,60.71z M261.86,36.44c-2.19-11.07-4.42-18.97-6.7-23.69c-2.28-4.72-5.86-7.08-10.73-7.08
		c-6.61,0-12.08,3.94-16.41,11.83c-4.33,7.88-6.49,17.07-6.49,27.55c0,6.29,0.74,10.89,2.22,13.81c1.48,2.92,3.77,4.38,6.87,4.38
		c5.15,0,10.6-2.75,16.34-8.24C252.7,49.51,257.67,43.32,261.86,36.44z"/>
</g>
</svg>
